<?xml version="1.0" encoding="utf-8"?>
<!-- Generator: Adobe Illustrator 25.4.1, SVG Export Plug-In . SVG Version: 6.00 Build 0)  -->
<svg version="1.1" id="图层_1" xmlns="http://www.w3.org/2000/svg" xmlns:xlink="http://www.w3.org/1999/xlink" x="0px" y="0px"
	 viewBox="0 0 447 417" style="enable-background:new 0 0 447 417;" xml:space="preserve">
<style type="text/css">
	.st0{fill:#ED7161;}
	.st1{fill:#D66556;}
	.st2{fill:#FFFFFF;}
	.st3{fill:#77A9C9;}
	.st4{fill:#7CB0D8;}
	.st5{fill:#040101;stroke:#231815;stroke-linecap:round;stroke-miterlimit:10;}
	.st6{fill:#EFEFEF;stroke:#231815;stroke-width:2;stroke-linecap:round;stroke-miterlimit:10;}
</style>
<path class="st0" d="M441.73,201.06c-10.38,4.32-18.16,3.46-41.52-3.46c-10.38-3.46-13.84-12.97-8.65-22.49v-0.86
	c1.73-4.32-2.59-8.65-6.92-6.05c-18.16,9.51-36.33,19.89-56.22,24.22c-12.97,3.46-19.89-1.73-19.89-15.57c0-2.59,0-4.32,0.86-6.92
	c3.46-10.38,6.92-21.62,11.24-32c6.92-15.57,14.7-30.27,21.62-45.84v-0.86c0.86-4.32-3.46-6.92-6.92-5.19h-0.86
	c-4.32,3.46-7.78,6.92-12.11,10.38c-13.84,9.51-29.41,3.46-32.87-12.97c-1.73-6.92,0.86-26.81-5.19-29.41
	c-7.78-3.46-8.65-9.51-7.78-17.3c2.6-11.24,2.6-5.19,3.46-19.03l-2.59-15.57c0-0.86,0-0.86-0.86-1.73s-1.73,0-2.59,0
	c-2.6,1.73-4.33,3.46-6.92,6.05c-6.92,8.65-12.97,17.3-20.76,25.95c-7.78,9.51-14.7-6.05-21.62,12.11
	c-12.97,36.33-41.52,21.62-53.63,19.89c-1.73,0-5.19,0-6.05,1.73s-0.86,4.32,0,6.92c6.92,20.76,24.22,52.76,6.05,82.17
	c-8.65,13.84-24.22,14.7-34.6,2.59l-5.19-7.78c-5.19-6.05-10.38-12.11-16.43-18.16c-2.6-2.59-6.05-2.59-6.05,2.59
	c-2.59,22.49-24.22,19.03-43.25,7.78c-7.78-5.19-15.57-9.51-24.22-13.84c-2.59-1.73-9.51-0.86-11.24,1.73
	c-3.46,4.32,1.73,6.05,4.32,8.65c10.38,8.65,16.43,19.03,13.84,32c-3.46,19.89,12.11,14.7,13.84,41.52
	c0.86,16.43-12.11,14.7-24.22,19.89c-1.73,0.86-3.46,2.6-3.46,4.32s1.73,3.46,3.46,4.32l10.38,2.59c10.38,4.32,21.62,8.65,32,13.84
	c6.92,3.46,10.38,9.51,12.11,17.3c1.73,9.51-4.32,17.3-13.84,17.3c-5.19,0-9.51-1.73-14.7-2.6h-0.86c-3.46,0-5.19,4.33-3.46,6.92
	h0.86c2.6,2.59,6.92,2.59,9.51,5.19c13.84,12.97,30.27,21.62,48.44,28.54c7.78,2.59,9.51,9.51,7.78,17.3c0,1.73-0.86,2.6-0.86,4.32
	c0,1.73,0.86,3.46,1.73,4.33s3.46,0,4.32-0.86c12.11-12.11,23.35-1.73,36.33-8.65c0.86,0,0.86-0.86,1.73-0.86
	c1.73-0.86,6.92-3.46,13.84-5.19l9.51,7.78c6.05-1.73,6.92,2.59,6.92,2.59c0,0.86,0.86,2.59,0.86,3.46
	c5.19,12.97,13.84,22.49,24.22,31.14c3.46,2.59,6.92,6.05,10.38,9.51c6.92,9.51,9.51,9.51,15.57-0.86
	c2.59-4.33,5.19-6.05,10.38-4.33c23.35,11.24,47.57,8.65,70.93,0c2.59-0.86,4.32-2.59,6.92-4.32v-1.73
	c-2.59-0.86-6.05-1.73-8.65-1.73c-11.24-0.86-17.3-8.65-15.57-19.03c5.19-25.08,26.81-35.46,51.9-38.92
	c9.51-1.73,19.03-4.33,27.68-7.78c1.73-0.86,2.59-3.46,4.32-5.19c-1.73-0.86-4.32-2.59-6.05-2.59
	c-12.11-0.86-18.16-10.38-13.84-21.62c6.92-18.16,25.95-24.22,38.06-30.27c5.19-2.59,6.05-5.19,2.6-8.65
	c-6.05-6.05-7.78-9.51-0.86-13.84c12.11-6.92,20.76-15.57,28.54-28.54C445.19,202.79,443.46,201.06,441.73,201.06L441.73,201.06z"/>
<path class="st1" d="M395.89,217.5l-0.86-1.73c-24.22,4.32-44.98,17.3-66.6,32c2.59-18.16,12.97-32,22.49-45.84
	c-3.46,1.73-6.92,3.46-8.65,6.92c-14.7,24.22-25.95,45.84-32.87,51.03c-6.92,6.05-27.68,22.49-35.46,26.81l-1.73-0.86
	c4.32-25.95,15.57-49.3,30.27-71.79c-2.6,0.86-5.19,1.73-6.05,4.32c-15.57,25.08-19.03,26.81-32,67.47
	c-9.51,32.87-40.65,36.33-69.2,51.03c12.11-29.41,21.62-57.09,29.41-82.17c4.32-2.59,12.11-15.57,17.3-19.89
	c9.51-7.78,29.41-21.62,38.06-26.81c-0.86-1.73-0.86-0.86-0.86-2.59c-8.65,3.46-32.87,12.97-49.3,31.14
	c5.19-17.3,8.65-32.87,12.11-47.57c20.76-20.76,12.97-20.76,22.49-32.87c6.92-9.51,23.35-25.95,32-34.6l-1.73-1.73
	c-12.11,7.78-38.92,25.95-49.3,51.03c12.97-73.52,4.32-109.85,4.32-109.85c-1.73,35.46-6.92,70.93-13.84,104.66
	c-10.38-34.6-30.27-38.06-32-76.12c-0.86,0-1.73,0-2.59-0.86c-11.24,32.87,19.89,38.06,28.54,103.8
	c-6.05,23.35-12.11,45.84-18.16,65.74c-1.73-40.65-38.92-42.38-31.14-84.77v-3.46l-1.73-1.73c-0.86,2.59-2.59,4.32-2.59,6.05
	c-7.78,47.57,30.27,54.49,32,94.28c-7.78,22.49-14.7,41.52-19.03,54.49c-2.59-10.38-12.11-23.35-16.43-35.46
	c-16.43-43.25-57.09-51.03-44.98-81.31c6.92-17.3-2.59-32-10.38-45.84c-0.86,0-1.73,0-2.59,0.86c6.92,23.35,13.84,32-0.86,51.03
	c-13.84-23.35-31.14-41.52-50.17-57.09c6.92,19.03,25.95,30.27,35.46,49.3c-8.65-2.59-16.43-5.19-23.35-7.78l-0.86,0.86
	c1.73,1.73,2.59,4.32,4.32,5.19c24.22,12.11,32,4.32,52.76,43.25c-29.41-12.97-40.65-3.46-57.09-19.03l-5.19-2.6
	c19.03,32.87,71.79,4.32,98.61,71.79c1.73,3.46,9.51,16.43,9.51,21.62c-10.38-7.78-16.43-22.49-38.06-23.35
	c-39.79-1.73-38.06-2.6-44.98-1.73c2.59,1.73,4.32,3.46,6.92,4.32c19.03,3.46,50.17,0,77.85,33.73c2.59,3.46,3.46,6.92,1.73,12.11
	c-21.62,37.19-70.93,20.76-97.74,61.41c-2.59,2.6,0,10.38,6.92,11.24c2.59,0,5.19-0.86,6.92-4.32
	c16.43-40.65,51.9-30.27,79.58-54.49c6.92-5.19,11.24-7.78,14.7-8.65l25.95-11.24c19.03,32,48.44,38.92,81.31,37.19
	c0.86-0.86,0.86-2.59,1.73-3.46c-31.14-0.86-58.82-9.51-76.98-36.33c39.79-16.43,31.14-14.7,55.36-7.78
	c-5.19-7.78-6.05-7.78-25.08-12.11c19.03-16.43,21.62-20.76,30.27-15.57c25.08,12.97,45.84,12.97,69.2,5.19v-2.6
	c-24.22,6.92-46.71,4.32-68.33-10.38c6.05-7.78,21.62-19.03,32-26.81c12.11-8.65,16.43-0.86,26.81,1.73c6.92,1.73,14.7,0,18.16-4.32
	c-9.51,0-19.89,2.59-26.81-6.92C348.31,239.12,365.61,232.2,395.89,217.5L395.89,217.5z"/>
<path class="st2" d="M70.22,334.48c6.14,18.76-3.77,58.46-3.77,58.46s-19.58-47.94-61.36-69.84c0,0,33.42-5.53,52.23-0.02"/>
<path class="st3" d="M73.83,339.26c4.68,14.27-2.4,39.35-4.51,51.72c-0.33,1.87-3.08,1.96-3.99,0.15
	c-6.8-13.64-21.06-43.94-53.67-61.04c0,0,34.67-5.34,53.51,0.18"/>
<path class="st2" d="M292.6,146c0,0-98.09,19.79-192.05,118.62c-11.76,11.72-44.37,60.25-48.2,72.69s7.85,3.53,10.98,0.42
	c3.13-3.11,42.68-22.82,56.3-31.26c39.01-24.11,124.58-89.24,144.47-110.27S289.19,164.71,292.6,146z"/>
<path class="st4" d="M295.35,148.91c0,0-93.9,21.95-187.86,120.77c-11.73,11.72-44.34,60.25-48.2,72.69
	c-0.12,1.46,8.19-4.31,10.91-5.81c12.1-6.65,39.71-21.26,50.87-28.13c39.01-24.11,124.58-89.24,144.47-110.27
	S291.93,167.62,295.35,148.91z"/>
<path d="M296.67,146.42c0.12-1.14-0.35-2.29-1.29-3.1c-1-0.89-2.41-1.22-3.74-0.95c-1.01,0.21-25.48,5.26-61.77,22.59
	c-21.26,10.14-42.19,22.41-62.18,36.49c-24.98,17.57-48.6,37.96-70.17,60.69c-6.84,6.85-19.1,23.99-27.5,36.62
	c-4.38,6.55-18.82,28.58-21.57,37.55c-0.67,2.21-2.52,8.11,2.16,10.54c3.83,1.99,8.34-0.85,9.81-1.79c2.31-1.48,4.67-3.39,5.93-4.7
	c1.8-1.53,14.78-8.44,25.22-13.98c11.71-6.22,23.85-12.68,30.4-16.72c39.97-24.79,125.49-90.08,145.23-110.97
	c19.39-20.52,25.72-31.71,29.44-52.01L296.67,146.42z M56.28,338.44l0-0.03c3.51-11.36,35.33-59.31,47.33-71.22
	c0.04-0.03,0.04-0.06,0.08-0.09c47.99-50.53,97.05-79.75,129.77-95.39c25.01-11.94,44.51-18.01,53.92-20.53
	c-3.29,14.19-8.98,24.13-26.41,42.58c-19.47,20.61-104.05,85.15-143.68,109.63c-6.33,3.91-18.33,10.29-29.96,16.46
	c-17.76,9.44-25.17,13.45-27.04,15.32C59.21,336.27,57.68,337.49,56.28,338.44L56.28,338.44z"/>
<path d="M75.51,364.65c1.14-11.01,1.34-22.86-1.39-31.18c-0.65-1.97-2.93-3.15-5.07-2.59s-3.39,2.62-2.74,4.59
	c3.8,11.58,0.97,32.23-1.43,45.11c-2.47-4.57-5.79-10.2-9.99-16.32c-8.09-11.78-20.94-27.3-38.44-38.87
	c11.08-1.13,28.41-2.12,39.67,1.21c2.16,0.63,4.43-0.45,5.08-2.41c0.65-1.96-0.57-4.06-2.73-4.69c-19.58-5.75-52.81-0.32-54.21-0.09
	c-1.67,0.3-2.96,1.51-3.23,3.04s0.57,3.09,2.06,3.87c20.79,10.88,35.83,28.69,44.79,41.68c9.83,14.24,14.7,26.03,14.75,26.16
	c0.63,1.57,2.3,2.55,4.09,2.49s3.31-1.22,3.72-2.83C70.67,392.87,73.97,379.53,75.51,364.65z M253.56,206.71
	c0.02-0.15,0.04-0.34,0.02-0.5c-0.13-1.7-1.74-3.02-3.63-2.94c-19.03,0.87-22.34-30.32-22.37-30.64c-0.17-1.7-1.81-3-3.71-2.88
	c-1.86,0.12-3.25,1.6-3.09,3.34c0.03,0.38,0.93,9.19,4.74,18.02c6.82,15.83,17.3,18.73,24.88,18.36
	C252.09,209.37,253.41,208.19,253.56,206.71L253.56,206.71z M232.21,210.15c0.04-0.4-0.09-0.82-0.39-1.17l-10.27-11.25
	c-0.46-0.52-1.23-0.69-1.9-0.48c-0.74,0.24-18.22,5.95-22.08,17.02c-0.04,0.09-0.05,0.18-0.07,0.31c-0.06,0.56,0,1.97,2.27,2.92
	c3.57,1.56,12.05,1.69,19.02-2.4l-1.04,4.39c-0.17,0.67,0.2,1.36,0.85,1.71c0.65,0.35,1.48,0.25,2.01-0.23l11.09-9.85
	C232,210.81,232.17,210.49,232.21,210.15z M219.74,200.57l8.46,9.25l-5.92,5.26l0.87-3.72c0.17-0.67-0.2-1.4-0.88-1.72
	c-0.69-0.32-1.52-0.22-2.02,0.29c-5.37,5.19-12.63,5.5-14.71,5.47c-2.36-0.03-3.82-0.46-4.48-0.75
	C204.26,206.81,216.07,201.91,219.74,200.57L219.74,200.57z M290.55,150.57c0.06-0.56-0.22-1.15-0.8-1.49
	c-0.81-0.46-1.86-0.26-2.34,0.48c-2.59,3.79-10.37,14.11-15.05,16c-0.86,0.35-1.23,1.28-0.83,2.04c0.4,0.79,1.42,1.15,2.25,0.8
	c6.44-2.64,15.5-15.71,16.51-17.16C290.44,151.03,290.53,150.79,290.55,150.57z"/>
<path d="M43.48,331.36c0.08-0.74-0.15-1.52-0.66-2.19c-1.12-1.4-3.28-1.68-4.76-0.68l-12.12,8.18c-1.51,1-1.78,2.97-0.66,4.34
	c1.12,1.4,3.28,1.68,4.76,0.68l12.12-8.18C42.94,332.96,43.4,332.19,43.48,331.36z M66.57,356.13c0.09-0.87-0.23-1.77-0.94-2.47
	c-1.31-1.26-3.46-1.33-4.81-0.16l-11.89,10.24c-1.35,1.17-1.39,3.14-0.08,4.4c1.31,1.26,3.46,1.33,4.81,0.16l11.89-10.24
	C66.15,357.53,66.49,356.84,66.57,356.13z M51.07,347.68c0.08-0.8-0.18-1.61-0.75-2.3c-1.2-1.34-3.33-1.56-4.78-0.5l-6.86,5.07
	c-1.45,1.07-1.65,3.02-0.45,4.36c1.2,1.34,3.33,1.56,4.78,0.5l6.86-5.07C50.6,349.22,50.99,348.45,51.07,347.68z M225.19,186.04
	c0.04-0.34-0.03-0.66-0.24-0.96c-0.51-0.74-1.54-0.97-2.34-0.56c-25.28,13.91-49.92,30.57-73.2,49.57
	c-18.6,15.2-36.4,31.91-52.86,49.68c-28.07,30.25-42.81,53.41-42.93,53.64c-0.45,0.73-0.18,1.7,0.64,2.13s1.86,0.19,2.32-0.54
	c0.16-0.23,14.77-23.19,42.65-53.24c25.72-27.71,68.33-67.32,125.17-98.55C224.85,186.94,225.14,186.51,225.19,186.04z"/>
<ellipse transform="matrix(0.1032 -0.9947 0.9947 0.1032 46.1332 408.6087)" class="st5" cx="249.67" cy="178.72" rx="3.98" ry="4.36"/>
<path class="st6" d="M247.6,181.71"/>
</svg>
